<svg xmlns="http://www.w3.org/2000/svg" width="351" height="640" fill="none" viewBox="0 0 351 640"><g clip-path="url(#clip0_112_116)"><g clip-path="url(#clip1_112_116)"><g clip-path="url(#clip2_112_116)"><g opacity=".1"><path stroke="#fff" stroke-width="2.038" d="M31.0001 638.981C207.168 638.981 349.981 496.168 349.981 320C349.981 143.832 207.168 1.0191 31.0001 1.0191C-145.168 1.0191 -287.981 143.832 -287.981 320C-287.981 496.168 -145.168 638.981 31.0001 638.981Z"/><path stroke="#fff" stroke-width="2.038" d="M31.799 479.851C120.524 479.851 192.449 407.926 192.449 319.201C192.449 230.476 120.524 158.551 31.799 158.551C-56.9257 158.551 -128.851 230.476 -128.851 319.201C-128.851 407.926 -56.9257 479.851 31.799 479.851Z"/><path stroke="#fff" stroke-width="2.038" d="M29.0657 418.367C83.7535 418.367 128.087 374.033 128.087 319.346C128.087 264.658 83.7535 220.325 29.0657 220.325C-25.622 220.325 -69.9552 264.658 -69.9552 319.346C-69.9552 374.033 -25.622 418.367 29.0657 418.367Z"/><path fill="#fff" d="M100.777 261.786C106.283 261.786 110.746 257.323 110.746 251.818C110.746 246.312 106.283 241.849 100.777 241.849C95.2721 241.849 90.8092 246.312 90.8092 251.818C90.8092 257.323 95.2721 261.786 100.777 261.786Z"/><path fill="#fff" d="M172.548 252.216C178.053 252.216 182.516 247.753 182.516 242.248C182.516 236.743 178.053 232.28 172.548 232.28C167.043 232.28 162.58 236.743 162.58 242.248C162.58 247.753 167.043 252.216 172.548 252.216Z"/></g></g></g></g><defs><clipPath id="clip0_112_116"><rect width="640" height="640" fill="#fff" transform="translate(-289)"/></clipPath><clipPath id="clip1_112_116"><rect width="640" height="640" fill="#fff" transform="translate(-289)"/></clipPath><clipPath id="clip2_112_116"><rect width="640" height="640" fill="#fff" transform="translate(-289)"/></clipPath></defs></svg>